<?xml version="1.0" encoding="UTF-8" standalone="no"?>
<!DOCTYPE svg PUBLIC "-//W3C//DTD SVG 1.1//EN" "http://www.w3.org/Graphics/SVG/1.1/DTD/svg11.dtd">
<svg xmlns="http://www.w3.org/2000/svg" version="1.1" viewBox="0.00 0.00 466.00 233.00">
<g stroke-width="2.00" fill="none" stroke-linecap="butt">
<path stroke="#422c23" vector-effect="non-scaling-stroke" d="
  M 161.99 44.61
  Q 167.64 43.54 170.74 43.19
  Q 175.64 42.63 182.59 44.44
  Q 195.44 47.78 202.59 58.62
  C 208.53 67.61 208.74 79.36 205.28 89.08
  A 0.23 0.23 0.0 0 0 205.61 89.36
  Q 206.71 88.72 207.98 87.48
  Q 226.19 69.56 241.74 50.76
  Q 247.30 44.04 249.20 34.38
  Q 250.88 25.84 247.20 18.44
  Q 243.51 11.04 235.94 6.84
  Q 230.63 3.90 229.22 3.35
  Q 219.82 -0.32 210.44 2.73
  Q 208.06 3.50 206.85 4.59
  Q 185.29 23.84 161.71 44.02
  A 0.34 0.34 0.0 0 0 161.99 44.61"
/>
<path stroke="#422c23" vector-effect="non-scaling-stroke" d="
  M 299.26 53.18
  L 254.72 119.91
  A 2.47 2.46 19.0 0 1 252.48 121.00
  Q 240.77 120.11 232.80 119.75
  C 229.66 119.61 225.47 118.89 221.68 118.84
  Q 217.29 118.79 213.36 118.32
  C 208.96 117.79 204.54 118.32 200.55 117.79
  Q 196.20 117.22 188.68 116.65
  Q 181.47 116.10 176.87 115.14
  Q 167.97 113.27 164.04 111.48
  Q 141.03 101.00 144.20 75.72
  Q 144.93 69.84 148.52 64.06
  Q 151.72 58.91 157.70 55.79
  Q 169.21 49.77 181.48 53.83
  C 195.94 58.60 200.61 71.88 196.82 85.60
  C 194.64 93.50 188.53 97.30 180.59 97.63
  Q 175.34 97.85 174.11 97.61
  Q 166.31 96.10 162.59 88.88
  C 160.12 84.08 159.49 75.65 163.56 71.47
  C 169.47 65.40 182.37 67.17 182.81 76.78
  C 183.08 82.49 179.06 84.14 173.93 82.99
  A 1.10 1.08 -1.7 0 1 173.11 82.23
  L 172.45 80.05
  A 0.68 0.68 0.0 0 1 172.90 79.21
  L 175.28 78.50
  A 2.25 2.24 -27.4 0 0 176.40 74.97
  L 176.06 74.53
  A 4.37 4.37 0.0 0 0 171.31 73.20
  C 164.79 75.42 165.07 84.36 170.35 87.50
  C 175.84 90.76 185.10 89.62 187.32 82.58
  Q 189.99 74.15 185.32 67.91
  C 181.82 63.25 175.03 61.14 169.55 62.44
  Q 159.04 64.93 155.37 74.18
  A 6.30 6.09 -32.1 0 0 155.00 75.68
  Q 153.04 92.25 165.75 100.65
  C 169.66 103.23 174.82 104.13 179.52 104.02
  C 189.91 103.79 201.59 97.49 204.63 86.94
  C 207.03 78.61 207.24 70.19 203.11 62.11
  C 194.49 45.26 173.24 39.73 156.78 48.61
  Q 154.26 49.97 150.64 53.38
  Q 146.20 57.56 145.18 58.92
  Q 137.94 68.57 137.96 81.03
  C 138.00 105.68 155.94 117.60 178.38 120.61
  Q 188.86 122.02 193.81 121.86
  C 197.63 121.75 200.96 122.81 205.58 122.86
  Q 208.89 122.90 214.40 123.57
  C 218.18 124.04 222.62 123.99 227.84 124.45
  Q 241.68 125.68 253.63 125.94
  A 1.93 1.91 17.1 0 0 255.27 125.08
  L 300.00 58.56
  A 0.37 0.35 62.6 0 0 300.06 58.36
  L 300.06 53.43
  A 0.44 0.44 0.0 0 0 299.26 53.18"
/>
<path stroke="#422c23" vector-effect="non-scaling-stroke" d="
  M 295.42 50.46
  Q 290.55 49.54 285.67 50.12"
/>
<path stroke="#0f512d" vector-effect="non-scaling-stroke" d="
  M 285.67 50.12
  L 246.19 47.32
  A 1.43 1.41 -66.7 0 0 245.06 47.78
  C 243.97 48.99 243.07 50.64 241.91 52.04
  Q 223.23 74.54 201.48 95.24
  Q 196.00 100.45 192.47 102.01
  C 184.09 105.71 173.07 106.54 165.12 101.73
  C 156.56 96.55 152.05 85.53 153.98 75.44
  C 155.89 65.41 167.50 59.22 177.18 61.63
  C 183.97 63.32 188.78 68.09 189.15 75.29
  Q 189.37 79.47 188.43 82.39
  C 184.90 93.32 167.14 93.44 165.28 81.48
  Q 164.44 76.06 168.85 73.12
  C 171.38 71.43 175.82 71.22 177.56 74.26
  C 178.88 76.57 176.80 79.88 174.45 80.08
  A 0.86 0.86 0.0 0 0 174.25 81.75
  Q 175.83 82.27 179.08 81.88
  A 1.55 1.53 18.9 0 0 180.00 81.44
  C 183.89 77.68 181.20 72.47 177.29 70.29
  C 171.22 66.90 162.71 70.14 161.93 77.50
  C 160.89 87.25 165.81 95.51 175.99 96.83
  C 185.48 98.06 193.14 94.12 195.92 84.69
  C 200.15 70.41 192.63 57.16 178.01 54.08
  Q 170.07 52.42 163.12 54.67
  C 149.08 59.24 143.64 71.26 145.14 85.46
  Q 147.05 103.56 165.76 110.81
  Q 173.93 113.97 180.81 114.67
  Q 186.95 115.29 189.25 115.82
  A 3.43 3.40 48.3 0 0 190.38 115.89
  Q 193.10 115.58 200.01 116.58
  Q 203.50 117.09 213.18 117.06
  A 4.43 4.30 -37.1 0 1 214.24 117.19
  C 218.91 118.40 223.81 117.86 228.80 118.48
  Q 234.33 119.17 242.27 119.09
  A 4.75 4.64 -38.1 0 1 243.45 119.22
  Q 248.09 120.34 252.89 119.83
  A 1.39 1.37 -75.8 0 0 253.88 119.23
  L 299.02 51.61
  A 0.41 0.41 0.0 0 0 298.74 50.98
  L 295.42 50.46"
/>
<path stroke="#335f35" vector-effect="non-scaling-stroke" d="
  M 285.67 50.12
  Q 290.58 51.05 295.42 50.46"
/>
</g>
<path fill="#1d1d1b" d="
  M 222.13 0.00
  Q 236.18 2.69 245.12 12.63
  C 253.03 21.42 252.64 35.43 246.63 45.27
  A 0.61 0.61 0.0 0 0 247.11 46.19
  L 300.88 49.55
  A 0.59 0.58 2.1 0 1 301.43 50.13
  L 301.43 58.30
  A 1.65 1.59 -29.3 0 1 301.16 59.19
  L 255.77 127.18
  A 1.33 1.31 18.4 0 1 254.58 127.77
  Q 217.05 125.49 195.05 123.92
  C 185.65 123.25 176.13 122.39 166.26 119.49
  C 146.80 113.78 135.64 99.50 136.59 78.51
  Q 137.30 62.81 149.42 52.43
  Q 183.82 22.99 205.54 3.78
  Q 208.66 1.03 215.15 0.00
  L 222.13 0.00
  Z
  M 161.99 44.61
  Q 167.64 43.54 170.74 43.19
  Q 175.64 42.63 182.59 44.44
  Q 195.44 47.78 202.59 58.62
  C 208.53 67.61 208.74 79.36 205.28 89.08
  A 0.23 0.23 0.0 0 0 205.61 89.36
  Q 206.71 88.72 207.98 87.48
  Q 226.19 69.56 241.74 50.76
  Q 247.30 44.04 249.20 34.38
  Q 250.88 25.84 247.20 18.44
  Q 243.51 11.04 235.94 6.84
  Q 230.63 3.90 229.22 3.35
  Q 219.82 -0.32 210.44 2.73
  Q 208.06 3.50 206.85 4.59
  Q 185.29 23.84 161.71 44.02
  A 0.34 0.34 0.0 0 0 161.99 44.61
  Z
  M 299.26 53.18
  L 254.72 119.91
  A 2.47 2.46 19.0 0 1 252.48 121.00
  Q 240.77 120.11 232.80 119.75
  C 229.66 119.61 225.47 118.89 221.68 118.84
  Q 217.29 118.79 213.36 118.32
  C 208.96 117.79 204.54 118.32 200.55 117.79
  Q 196.20 117.22 188.68 116.65
  Q 181.47 116.10 176.87 115.14
  Q 167.97 113.27 164.04 111.48
  Q 141.03 101.00 144.20 75.72
  Q 144.93 69.84 148.52 64.06
  Q 151.72 58.91 157.70 55.79
  Q 169.21 49.77 181.48 53.83
  C 195.94 58.60 200.61 71.88 196.82 85.60
  C 194.64 93.50 188.53 97.30 180.59 97.63
  Q 175.34 97.85 174.11 97.61
  Q 166.31 96.10 162.59 88.88
  C 160.12 84.08 159.49 75.65 163.56 71.47
  C 169.47 65.40 182.37 67.17 182.81 76.78
  C 183.08 82.49 179.06 84.14 173.93 82.99
  A 1.10 1.08 -1.7 0 1 173.11 82.23
  L 172.45 80.05
  A 0.68 0.68 0.0 0 1 172.90 79.21
  L 175.28 78.50
  A 2.25 2.24 -27.4 0 0 176.40 74.97
  L 176.06 74.53
  A 4.37 4.37 0.0 0 0 171.31 73.20
  C 164.79 75.42 165.07 84.36 170.35 87.50
  C 175.84 90.76 185.10 89.62 187.32 82.58
  Q 189.99 74.15 185.32 67.91
  C 181.82 63.25 175.03 61.14 169.55 62.44
  Q 159.04 64.93 155.37 74.18
  A 6.30 6.09 -32.1 0 0 155.00 75.68
  Q 153.04 92.25 165.75 100.65
  C 169.66 103.23 174.82 104.13 179.52 104.02
  C 189.91 103.79 201.59 97.49 204.63 86.94
  C 207.03 78.61 207.24 70.19 203.11 62.11
  C 194.49 45.26 173.24 39.73 156.78 48.61
  Q 154.26 49.97 150.64 53.38
  Q 146.20 57.56 145.18 58.92
  Q 137.94 68.57 137.96 81.03
  C 138.00 105.68 155.94 117.60 178.38 120.61
  Q 188.86 122.02 193.81 121.86
  C 197.63 121.75 200.96 122.81 205.58 122.86
  Q 208.89 122.90 214.40 123.57
  C 218.18 124.04 222.62 123.99 227.84 124.45
  Q 241.68 125.68 253.63 125.94
  A 1.93 1.91 17.1 0 0 255.27 125.08
  L 300.00 58.56
  A 0.37 0.35 62.6 0 0 300.06 58.36
  L 300.06 53.43
  A 0.44 0.44 0.0 0 0 299.26 53.18
  Z
  M 295.42 50.46
  Q 290.55 49.54 285.67 50.12
  L 246.19 47.32
  A 1.43 1.41 -66.7 0 0 245.06 47.78
  C 243.97 48.99 243.07 50.64 241.91 52.04
  Q 223.23 74.54 201.48 95.24
  Q 196.00 100.45 192.47 102.01
  C 184.09 105.71 173.07 106.54 165.12 101.73
  C 156.56 96.55 152.05 85.53 153.98 75.44
  C 155.89 65.41 167.50 59.22 177.18 61.63
  C 183.97 63.32 188.78 68.09 189.15 75.29
  Q 189.37 79.47 188.43 82.39
  C 184.90 93.32 167.14 93.44 165.28 81.48
  Q 164.44 76.06 168.85 73.12
  C 171.38 71.43 175.82 71.22 177.56 74.26
  C 178.88 76.57 176.80 79.88 174.45 80.08
  A 0.86 0.86 0.0 0 0 174.25 81.75
  Q 175.83 82.27 179.08 81.88
  A 1.55 1.53 18.9 0 0 180.00 81.44
  C 183.89 77.68 181.20 72.47 177.29 70.29
  C 171.22 66.90 162.71 70.14 161.93 77.50
  C 160.89 87.25 165.81 95.51 175.99 96.83
  C 185.48 98.06 193.14 94.12 195.92 84.69
  C 200.15 70.41 192.63 57.16 178.01 54.08
  Q 170.07 52.42 163.12 54.67
  C 149.08 59.24 143.64 71.26 145.14 85.46
  Q 147.05 103.56 165.76 110.81
  Q 173.93 113.97 180.81 114.67
  Q 186.95 115.29 189.25 115.82
  A 3.43 3.40 48.3 0 0 190.38 115.89
  Q 193.10 115.58 200.01 116.58
  Q 203.50 117.09 213.18 117.06
  A 4.43 4.30 -37.1 0 1 214.24 117.19
  C 218.91 118.40 223.81 117.86 228.80 118.48
  Q 234.33 119.17 242.27 119.09
  A 4.75 4.64 -38.1 0 1 243.45 119.22
  Q 248.09 120.34 252.89 119.83
  A 1.39 1.37 -75.8 0 0 253.88 119.23
  L 299.02 51.61
  A 0.41 0.41 0.0 0 0 298.74 50.98
  L 295.42 50.46
  Z"
/>
<path fill="#663a2b" d="
  M 161.99 44.61
  A 0.34 0.34 0.0 0 1 161.71 44.02
  Q 185.29 23.84 206.85 4.59
  Q 208.06 3.50 210.44 2.73
  Q 219.82 -0.32 229.22 3.35
  Q 230.63 3.90 235.94 6.84
  Q 243.51 11.04 247.20 18.44
  Q 250.88 25.84 249.20 34.38
  Q 247.30 44.04 241.74 50.76
  Q 226.19 69.56 207.98 87.48
  Q 206.71 88.72 205.61 89.36
  A 0.23 0.23 0.0 0 1 205.28 89.08
  C 208.74 79.36 208.53 67.61 202.59 58.62
  Q 195.44 47.78 182.59 44.44
  Q 175.64 42.63 170.74 43.19
  Q 167.64 43.54 161.99 44.61
  Z"
/>
<path fill="#663a2b" d="
  M 299.26 53.18
  A 0.44 0.44 0.0 0 1 300.06 53.43
  L 300.06 58.36
  A 0.37 0.35 62.6 0 1 300.00 58.56
  L 255.27 125.08
  A 1.93 1.91 17.1 0 1 253.63 125.94
  Q 241.68 125.68 227.84 124.45
  C 222.62 123.99 218.18 124.04 214.40 123.57
  Q 208.89 122.90 205.58 122.86
  C 200.96 122.81 197.63 121.75 193.81 121.86
  Q 188.86 122.02 178.38 120.61
  C 155.94 117.60 138.00 105.68 137.96 81.03
  Q 137.94 68.57 145.18 58.92
  Q 146.20 57.56 150.64 53.38
  Q 154.26 49.97 156.78 48.61
  C 173.24 39.73 194.49 45.26 203.11 62.11
  C 207.24 70.19 207.03 78.61 204.63 86.94
  C 201.59 97.49 189.91 103.79 179.52 104.02
  C 174.82 104.13 169.66 103.23 165.75 100.65
  Q 153.04 92.25 155.00 75.68
  A 6.30 6.09 -32.1 0 1 155.37 74.18
  Q 159.04 64.93 169.55 62.44
  C 175.03 61.14 181.82 63.25 185.32 67.91
  Q 189.99 74.15 187.32 82.58
  C 185.10 89.62 175.84 90.76 170.35 87.50
  C 165.07 84.36 164.79 75.42 171.31 73.20
  A 4.37 4.37 0.0 0 1 176.06 74.53
  L 176.40 74.97
  A 2.25 2.24 -27.4 0 1 175.28 78.50
  L 172.90 79.21
  A 0.68 0.68 0.0 0 0 172.45 80.05
  L 173.11 82.23
  A 1.10 1.08 -1.7 0 0 173.93 82.99
  C 179.06 84.14 183.08 82.49 182.81 76.78
  C 182.37 67.17 169.47 65.40 163.56 71.47
  C 159.49 75.65 160.12 84.08 162.59 88.88
  Q 166.31 96.10 174.11 97.61
  Q 175.34 97.85 180.59 97.63
  C 188.53 97.30 194.64 93.50 196.82 85.60
  C 200.61 71.88 195.94 58.60 181.48 53.83
  Q 169.21 49.77 157.70 55.79
  Q 151.72 58.91 148.52 64.06
  Q 144.93 69.84 144.20 75.72
  Q 141.03 101.00 164.04 111.48
  Q 167.97 113.27 176.87 115.14
  Q 181.47 116.10 188.68 116.65
  Q 196.20 117.22 200.55 117.79
  C 204.54 118.32 208.96 117.79 213.36 118.32
  Q 217.29 118.79 221.68 118.84
  C 225.47 118.89 229.66 119.61 232.80 119.75
  Q 240.77 120.11 252.48 121.00
  A 2.47 2.46 19.0 0 0 254.72 119.91
  L 299.26 53.18
  Z"
/>
<path fill="#00843e" d="
  M 285.67 50.12
  Q 290.58 51.05 295.42 50.46
  L 298.74 50.98
  A 0.41 0.41 0.0 0 1 299.02 51.61
  L 253.88 119.23
  A 1.39 1.37 -75.8 0 1 252.89 119.83
  Q 248.09 120.34 243.45 119.22
  A 4.75 4.64 -38.1 0 0 242.27 119.09
  Q 234.33 119.17 228.80 118.48
  C 223.81 117.86 218.91 118.40 214.24 117.19
  A 4.43 4.30 -37.1 0 0 213.18 117.06
  Q 203.50 117.09 200.01 116.58
  Q 193.10 115.58 190.38 115.89
  A 3.43 3.40 48.3 0 1 189.25 115.82
  Q 186.95 115.29 180.81 114.67
  Q 173.93 113.97 165.76 110.81
  Q 147.05 103.56 145.14 85.46
  C 143.64 71.26 149.08 59.24 163.12 54.67
  Q 170.07 52.42 178.01 54.08
  C 192.63 57.16 200.15 70.41 195.92 84.69
  C 193.14 94.12 185.48 98.06 175.99 96.83
  C 165.81 95.51 160.89 87.25 161.93 77.50
  C 162.71 70.14 171.22 66.90 177.29 70.29
  C 181.20 72.47 183.89 77.68 180.00 81.44
  A 1.55 1.53 18.9 0 1 179.08 81.88
  Q 175.83 82.27 174.25 81.75
  A 0.86 0.86 0.0 0 1 174.45 80.08
  C 176.80 79.88 178.88 76.57 177.56 74.26
  C 175.82 71.22 171.38 71.43 168.85 73.12
  Q 164.44 76.06 165.28 81.48
  C 167.14 93.44 184.90 93.32 188.43 82.39
  Q 189.37 79.47 189.15 75.29
  C 188.78 68.09 183.97 63.32 177.18 61.63
  C 167.50 59.22 155.89 65.41 153.98 75.44
  C 152.05 85.53 156.56 96.55 165.12 101.73
  C 173.07 106.54 184.09 105.71 192.47 102.01
  Q 196.00 100.45 201.48 95.24
  Q 223.23 74.54 241.91 52.04
  C 243.07 50.64 243.97 48.99 245.06 47.78
  A 1.43 1.41 -66.7 0 1 246.19 47.32
  L 285.67 50.12
  Z"
/>
<path fill="#663a2b" d="
  M 295.42 50.46
  Q 290.58 51.05 285.67 50.12
  Q 290.55 49.54 295.42 50.46
  Z"
/>
<rect fill="#00843e" x="4.53" y="123.47" width="142.50" height="3.30" rx="0.47"/>
<rect fill="#00843e" x="281.67" y="123.48" width="143.48" height="3.28" rx="0.60"/>
<rect fill="#1d1d1b" x="343.02" y="140.05" width="4.96" height="40.98" rx="0.63"/>
<path fill="#1d1d1b" d="
  M 376.08 176.37
  Q 370.09 183.26 362.19 179.89
  C 351.68 175.41 352.97 156.65 364.21 153.52
  Q 370.84 151.68 375.72 156.69
  A 0.19 0.19 0.0 0 0 376.04 156.56
  L 376.04 140.88
  A 0.87 0.87 0.0 0 1 376.91 140.01
  L 380.08 140.01
  A 0.92 0.91 90.0 0 1 380.99 140.93
  L 380.99 180.84
  A 0.14 0.14 0.0 0 1 380.85 180.98
  L 377.08 180.98
  A 0.34 0.34 0.0 0 1 376.74 180.64
  L 376.74 176.62
  A 0.38 0.38 0.0 0 0 376.08 176.37
  Z
  M 376.0184 164.2326
  A 7.28 7.28 0.0 0 0 368.8150 156.8767
  L 367.6351 156.8644
  A 7.28 7.28 0.0 0 0 360.2792 164.0677
  L 360.2216 169.5674
  A 7.28 7.28 0.0 0 0 367.4250 176.9233
  L 368.6049 176.9356
  A 7.28 7.28 0.0 0 0 375.9608 169.7323
  L 376.0184 164.2326
  Z"
/>
<path fill="#1d1d1b" d="
  M 392.98 157.47
  A 0.29 0.28 -30.0 0 0 393.51 157.61
  C 395.52 154.20 399.91 152.23 403.74 153.32
  Q 410.05 155.09 410.82 162.79
  Q 411.13 165.92 410.95 180.47
  A 0.52 0.52 0.0 0 1 410.43 180.99
  L 406.54 180.99
  A 0.53 0.53 0.0 0 1 406.01 180.47
  Q 405.98 172.78 406.02 166.36
  Q 406.04 162.19 405.17 160.43
  C 402.07 154.16 393.06 157.58 393.01 163.99
  Q 392.93 172.65 393.00 180.30
  A 0.68 0.68 0.0 0 1 392.32 180.99
  L 388.66 180.99
  A 0.67 0.66 90.0 0 1 388.00 180.32
  L 388.00 140.85
  A 0.85 0.84 -0.0 0 1 388.85 140.01
  L 392.13 140.01
  A 0.85 0.85 0.0 0 1 392.98 140.86
  L 392.98 157.47
  Z"
/>
<path fill="#1d1d1b" d="
  M 466.00 140.63
  L 466.00 141.88
  Q 465.56 142.94 465.51 143.91
  A 0.42 0.42 0.0 0 1 465.01 144.31
  C 458.36 143.09 456.80 146.46 456.97 152.36
  A 0.67 0.67 0.0 0 0 457.64 153.01
  L 463.09 153.01
  A 0.32 0.32 0.0 0 1 463.41 153.33
  L 463.41 156.42
  A 0.25 0.25 0.0 0 1 463.16 156.67
  L 457.37 156.67
  A 0.38 0.37 0.0 0 0 456.99 157.04
  L 456.99 180.17
  A 0.82 0.82 0.0 0 1 456.17 180.99
  L 452.87 180.99
  A 0.87 0.86 -0.0 0 1 452.00 180.13
  L 452.00 157.22
  A 0.54 0.54 0.0 0 0 451.46 156.68
  L 448.72 156.68
  A 0.40 0.39 -90.0 0 1 448.33 156.28
  L 448.33 153.42
  A 0.40 0.40 0.0 0 1 448.72 153.02
  L 451.64 152.98
  A 0.33 0.33 0.0 0 0 451.94 152.54
  Q 451.89 152.40 452.29 149.73
  Q 454.06 137.91 466.00 140.63
  Z"
/>
<path fill="#1d1d1b" d="
  M 20.70 162.87
  A 0.07 0.07 0.0 0 0 20.69 163.00
  Q 24.70 164.94 25.79 169.00
  Q 27.40 175.03 29.03 180.76
  A 0.19 0.19 0.0 0 1 28.85 181.00
  L 24.53 181.00
  A 0.50 0.49 81.1 0 1 24.06 180.65
  Q 22.62 176.34 21.49 171.26
  C 19.98 164.41 15.30 164.71 9.56 164.62
  A 0.57 0.56 -89.5 0 0 8.99 165.19
  L 8.99 180.41
  A 0.58 0.58 0.0 0 1 8.41 180.99
  L 4.60 180.99
  A 0.60 0.60 0.0 0 1 4.00 180.39
  L 4.00 143.51
  A 0.67 0.67 0.0 0 1 4.55 142.85
  C 12.80 141.33 27.58 140.30 27.91 152.42
  C 28.05 157.46 25.40 161.06 20.70 162.87
  Z
  M 8.97 146.62
  L 9.01 160.12
  A 0.85 0.85 0.0 0 0 9.87 160.97
  L 15.17 160.95
  A 7.85 7.07 -0.2 0 0 22.99 153.86
  L 22.99 152.80
  A 7.85 7.07 -0.2 0 0 15.11 145.75
  L 9.81 145.77
  A 0.85 0.85 0.0 0 0 8.97 146.62
  Z"
/>
<path fill="#1d1d1b" d="
  M 300.46 174.29
  L 308.35 142.26
  A 0.30 0.30 0.0 0 1 308.64 142.02
  L 313.23 142.02
  A 0.16 0.16 0.0 0 1 313.38 142.22
  L 302.82 180.38
  A 0.84 0.84 0.0 0 1 302.01 181.00
  L 298.21 181.00
  A 0.70 0.69 83.0 0 1 297.54 180.47
  Q 293.85 165.43 290.71 151.01
  Q 290.53 150.18 290.60 148.48
  A 0.27 0.26 53.4 0 0 290.08 148.40
  L 282.24 180.22
  A 1.02 1.02 0.0 0 1 281.25 181.00
  L 277.35 181.00
  A 0.81 0.81 0.0 0 1 276.56 180.38
  L 267.13 142.23
  A 0.18 0.18 0.0 0 1 267.30 142.00
  L 271.97 142.00
  A 0.32 0.29 82.5 0 1 272.26 142.24
  L 279.47 174.56
  A 0.13 0.13 0.0 0 0 279.73 174.56
  L 287.59 142.63
  A 0.85 0.84 7.0 0 1 288.41 141.99
  L 292.46 141.99
  A 0.74 0.74 0.0 0 1 293.18 142.57
  L 300.26 174.29
  A 0.10 0.10 0.0 0 0 300.46 174.29
  Z"
/>
<path fill="#1d1d1b" d="
  M 48.20 177.45
  Q 43.52 181.47 39.57 180.96
  C 32.58 180.06 29.74 173.58 34.08 168.07
  C 36.92 164.46 43.16 163.55 47.72 163.58
  A 0.56 0.55 89.0 0 0 48.28 162.99
  Q 47.86 155.68 40.28 156.79
  Q 37.54 157.19 35.64 158.39
  A 0.48 0.47 65.8 0 1 34.94 158.12
  L 34.26 155.85
  A 0.58 0.57 -22.0 0 1 34.55 155.17
  C 41.91 151.36 52.31 152.06 52.76 162.43
  Q 53.18 171.90 53.18 180.71
  A 0.30 0.30 0.0 0 1 52.88 181.01
  L 49.45 181.01
  A 0.60 0.59 -90.0 0 1 48.86 180.41
  L 48.86 177.75
  A 0.40 0.40 0.0 0 0 48.20 177.45
  Z
  M 47.73 166.99
  C 44.39 166.80 39.61 167.29 37.60 170.29
  A 2.67 2.60 69.3 0 0 37.23 171.14
  Q 36.12 176.10 40.39 177.26
  A 3.54 3.40 50.0 0 0 41.40 177.37
  Q 46.99 177.18 48.29 172.09
  A 0.78 0.65 58.3 0 0 48.32 171.88
  L 48.38 167.68
  A 0.68 0.68 0.0 0 0 47.73 166.99
  Z"
/>
<path fill="#1d1d1b" d="
  M 60.47 178.87
  L 61.27 175.98
  A 0.38 0.38 0.0 0 1 61.80 175.74
  C 65.10 177.28 71.23 178.78 72.95 174.91
  C 74.38 171.69 71.85 169.81 68.89 168.69
  C 64.38 166.98 59.30 163.96 61.54 158.36
  C 63.92 152.39 71.50 152.13 76.69 154.56
  A 0.31 0.31 0.0 0 1 76.85 154.91
  L 75.99 158.01
  A 0.25 0.25 0.0 0 1 75.62 158.16
  C 73.03 156.71 69.10 155.77 66.69 158.03
  C 64.71 159.89 65.82 162.62 68.07 163.66
  Q 73.33 166.08 73.38 166.11
  C 79.46 169.01 79.54 177.48 73.19 179.94
  Q 66.99 182.33 60.68 179.31
  A 0.38 0.38 0.0 0 1 60.47 178.87
  Z"
/>
<path fill="#1d1d1b" d="
  M 103.81 176.67
  L 104.32 178.72
  A 0.73 0.73 0.0 0 1 103.81 179.60
  C 93.45 182.63 82.89 180.72 82.34 167.67
  Q 82.16 163.29 84.34 159.30
  C 87.33 153.85 94.36 151.34 100.04 154.27
  C 104.59 156.63 106.38 162.58 105.90 167.35
  A 0.71 0.70 -87.3 0 1 105.20 167.99
  L 87.53 167.99
  A 0.57 0.57 0.0 0 0 86.96 168.62
  C 88.05 178.20 95.54 178.10 103.13 176.26
  A 0.56 0.56 0.0 0 1 103.81 176.67
  Z
  M 87.61 164.58
  L 101.17 164.60
  A 0.27 0.27 0.0 0 0 101.44 164.33
  L 101.44 164.17
  A 7.73 6.96 -89.9 0 0 94.50 156.43
  L 94.32 156.43
  A 7.73 6.96 -89.9 0 0 87.34 164.15
  L 87.34 164.31
  A 0.27 0.27 0.0 0 0 87.61 164.58
  Z"
/>
<path fill="#1d1d1b" d="
  M 116.28 157.53
  A 0.30 0.29 -28.3 0 0 116.82 157.69
  C 119.37 153.79 124.53 151.89 128.85 153.72
  Q 134.44 156.08 134.80 163.00
  Q 135.17 170.09 134.94 180.36
  A 0.65 0.65 0.0 0 1 134.29 180.99
  L 130.68 180.99
  A 0.67 0.67 0.0 0 1 130.01 180.32
  Q 130.03 171.14 130.02 166.13
  Q 130.02 162.24 129.27 160.63
  C 126.27 154.20 117.21 157.45 117.02 163.78
  Q 116.88 168.49 117.03 180.29
  A 0.70 0.70 0.0 0 1 116.33 180.99
  L 112.63 180.99
  A 0.64 0.64 0.0 0 1 111.99 180.35
  L 111.99 153.17
  A 0.16 0.15 90.0 0 1 112.14 153.01
  L 115.98 153.01
  A 0.30 0.29 0.0 0 1 116.28 153.30
  L 116.28 157.53
  Z"
/>
<path fill="#1d1d1b" d="
  M 165.94 175.86
  Q 165.99 175.86 166.04 175.84
  A 0.29 0.10 -77.5 0 0 166.15 175.65
  L 173.60 153.32
  A 0.40 0.39 9.0 0 1 173.98 153.05
  L 178.63 153.05
  A 0.21 0.20 -79.2 0 1 178.82 153.33
  L 168.44 180.49
  A 0.78 0.77 4.3 0 1 167.87 180.98
  Q 167.72 181.01 165.92 181.00
  Q 164.11 180.99 163.97 180.96
  A 0.78 0.77 -3.8 0 1 163.40 180.47
  L 153.21 153.24
  A 0.21 0.20 79.7 0 1 153.41 152.96
  L 158.06 152.99
  A 0.40 0.39 -8.6 0 1 158.43 153.27
  L 165.72 175.65
  A 0.29 0.10 77.9 0 0 165.83 175.84
  Q 165.88 175.86 165.94 175.86
  Z"
/>
<path fill="#1d1d1b" d="
  M 195.9329 152.9821
  A 14.08 13.59 -84.2 0 1 208.0304 168.3634
  A 14.08 13.59 -84.2 0 1 193.0871 180.9979
  A 14.08 13.59 -84.2 0 1 180.9896 165.6166
  A 14.08 13.59 -84.2 0 1 195.9329 152.9821
  Z
  M 194.5363 156.5701
  A 10.39 8.61 -89.8 0 0 185.8901 166.9299
  A 10.39 8.61 -89.8 0 0 194.4637 177.3499
  A 10.39 8.61 -89.8 0 0 203.1099 166.9901
  A 10.39 8.61 -89.8 0 0 194.5363 156.5701
  Z"
/>
<path fill="#1d1d1b" d="
  M 235.32 158.02
  Q 237.74 154.48 240.63 153.64
  C 248.54 151.34 252.59 156.77 252.92 164.00
  Q 253.08 167.51 252.97 180.47
  A 0.52 0.52 0.0 0 1 252.45 180.99
  L 248.88 180.99
  A 0.55 0.55 0.0 0 1 248.33 180.44
  Q 248.35 171.88 248.31 164.51
  C 248.24 154.02 235.90 154.74 235.97 164.99
  Q 236.01 171.79 235.99 180.41
  A 0.59 0.58 90.0 0 1 235.41 181.00
  L 231.91 181.00
  A 0.63 0.62 -89.5 0 1 231.29 180.36
  Q 231.50 167.77 231.18 163.12
  C 230.65 155.65 222.30 154.93 219.53 161.45
  Q 218.99 162.72 218.99 165.16
  Q 218.98 172.81 218.99 180.31
  A 0.67 0.67 0.0 0 1 218.32 180.99
  L 214.97 180.99
  A 0.65 0.65 0.0 0 1 214.32 180.34
  L 214.32 153.13
  A 0.12 0.12 0.0 0 1 214.44 153.01
  L 217.98 153.01
  A 0.32 0.31 0.0 0 1 218.30 153.32
  L 218.30 157.20
  A 0.34 0.34 0.0 0 0 218.89 157.44
  C 221.44 154.82 222.98 153.12 227.25 153.17
  Q 232.52 153.22 234.53 157.94
  A 0.46 0.45 50.5 0 0 235.32 158.02
  Z"
/>
<path fill="#1d1d1b" d="
  M 330.86 177.75
  A 0.40 0.40 0.0 0 0 330.20 177.45
  Q 325.52 181.47 321.57 180.96
  C 314.59 180.06 311.74 173.58 316.08 168.07
  C 318.92 164.46 325.16 163.55 329.72 163.58
  A 0.56 0.55 89.0 0 0 330.28 162.99
  Q 329.86 155.68 322.28 156.79
  Q 319.54 157.19 317.64 158.39
  A 0.48 0.47 65.8 0 1 316.94 158.12
  L 316.26 155.85
  A 0.58 0.57 -22.0 0 1 316.55 155.17
  C 323.91 151.36 334.31 152.06 334.76 162.43
  Q 335.18 171.90 335.18 180.71
  A 0.30 0.30 0.0 0 1 334.88 181.01
  L 331.45 181.01
  A 0.60 0.59 90.0 0 1 330.86 180.41
  L 330.86 177.75
  Z
  M 329.72 166.99
  C 326.39 166.80 321.61 167.29 319.60 170.29
  A 2.67 2.60 69.3 0 0 319.24 171.14
  Q 318.13 176.09 322.39 177.25
  A 3.54 3.39 50.0 0 0 323.40 177.36
  Q 328.99 177.17 330.28 172.08
  A 0.78 0.65 58.3 0 0 330.31 171.87
  L 330.37 167.68
  A 0.68 0.68 0.0 0 0 329.72 166.99
  Z"
/>
<path fill="#1d1d1b" d="
  M 433.8339 153.1031
  A 14.08 13.58 -80.5 0 1 444.9038 169.2313
  A 14.08 13.58 -80.5 0 1 429.1861 180.8769
  A 14.08 13.58 -80.5 0 1 418.1162 164.7487
  A 14.08 13.58 -80.5 0 1 433.8339 153.1031
  Z
  M 431.5444 156.5701
  A 10.39 8.61 -89.7 0 0 422.8801 166.9149
  A 10.39 8.61 -89.7 0 0 431.4356 177.3499
  A 10.39 8.61 -89.7 0 0 440.0999 167.0051
  A 10.39 8.61 -89.7 0 0 431.5444 156.5701
  Z"
/>
<rect fill="#1d1d1b" x="191.34" y="203.02" width="2.64" height="21.96" rx="0.40"/>
<path fill="#1d1d1b" d="
  M 209.36 211.26
  L 209.36 203.58
  A 0.56 0.56 0.0 0 1 209.92 203.02
  L 211.28 203.02
  A 0.69 0.69 0.0 0 1 211.97 203.71
  L 211.97 224.43
  A 0.57 0.56 -0.0 0 1 211.40 224.99
  L 210.60 224.99
  A 0.97 0.97 0.0 0 1 209.63 224.02
  L 209.63 222.99
  A 0.31 0.31 0.0 0 0 209.08 222.79
  Q 207.27 224.93 204.50 224.88
  C 197.46 224.75 196.22 215.49 200.62 211.67
  Q 204.17 208.58 208.76 211.58
  A 0.39 0.39 0.0 0 0 209.36 211.26
  Z
  M 205.2661 211.9419
  A 5.58 4.50 -88.5 0 0 200.6215 217.4022
  A 5.58 4.50 -88.5 0 0 204.9739 223.0981
  A 5.58 4.50 -88.5 0 0 209.6185 217.6378
  A 5.58 4.50 -88.5 0 0 205.2661 211.9419
  Z"
/>
<path fill="#1d1d1b" d="
  M 229.50 212.26
  C 233.11 208.25 239.03 209.77 239.54 215.42
  Q 239.72 217.46 239.64 224.50
  A 0.53 0.53 0.0 0 1 239.11 225.02
  L 237.48 225.02
  A 0.53 0.52 -0.0 0 1 236.95 224.50
  L 236.95 215.66
  A 3.43 3.43 0.0 0 0 233.04 212.26
  L 232.40 212.35
  A 3.88 3.88 0.0 0 0 229.06 216.19
  L 229.06 224.59
  A 0.49 0.49 0.0 0 1 228.57 225.08
  L 226.94 225.08
  A 0.57 0.57 0.0 0 1 226.37 224.51
  L 226.37 203.51
  A 0.55 0.55 0.0 0 1 226.92 202.96
  L 228.47 202.96
  A 0.53 0.53 0.0 0 1 229.00 203.49
  L 229.00 212.07
  A 0.29 0.29 0.0 0 0 229.50 212.26
  Z"
/>
<path fill="#1d1d1b" d="
  M 263.99 212.51
  L 263.99 224.58
  A 0.41 0.41 0.0 0 1 263.58 224.99
  L 261.79 224.99
  A 0.46 0.45 -90.0 0 1 261.34 224.53
  L 261.34 212.49
  A 0.53 0.52 -0.0 0 0 260.81 211.97
  L 259.49 211.97
  A 0.52 0.51 -90.0 0 1 258.98 211.45
  L 258.97 210.60
  A 0.63 0.62 4.4 0 1 259.69 209.99
  Q 260.34 210.10 260.82 210.00
  A 0.67 0.67 0.0 0 0 261.37 209.34
  C 261.33 204.74 264.21 202.21 268.57 203.36
  A 0.54 0.53 6.9 0 1 268.98 203.88
  L 268.98 204.67
  A 0.47 0.46 -84.0 0 1 268.42 205.13
  C 265.11 204.40 263.99 206.24 263.94 209.38
  A 0.65 0.64 -89.6 0 0 264.58 210.04
  L 267.01 210.04
  A 0.78 0.77 0.0 0 1 267.79 210.81
  L 267.79 211.15
  A 0.82 0.82 0.0 0 1 266.97 211.97
  L 264.53 211.97
  A 0.54 0.54 0.0 0 0 263.99 212.51
  Z"
/>
<path fill="#1d1d1b" d="
  M 292.60 212.07
  A 0.28 0.28 0.0 0 0 293.09 212.26
  C 296.69 208.34 302.52 209.90 302.96 215.48
  Q 303.12 217.50 302.97 224.44
  A 0.52 0.52 0.0 0 1 302.44 224.95
  L 300.83 224.93
  A 0.52 0.51 0.6 0 1 300.32 224.41
  L 300.41 215.69
  A 3.39 3.39 0.0 0 0 296.58 212.30
  L 295.95 212.38
  A 3.83 3.82 -3.4 0 0 292.62 216.14
  L 292.53 224.42
  A 0.48 0.48 0.0 0 1 292.04 224.90
  L 290.44 224.88
  A 0.56 0.56 0.0 0 1 289.88 224.32
  L 290.09 203.60
  A 0.54 0.54 0.0 0 1 290.64 203.06
  L 292.17 203.08
  A 0.52 0.52 0.0 0 1 292.69 203.61
  L 292.60 212.07
  Z"
/>
<path fill="#1d1d1b" d="
  M 162.10 209.99
  Q 162.80 209.99 163.26 210.37
  A 0.80 0.79 -78.8 0 1 163.52 210.77
  L 166.90 222.00
  A 0.22 0.22 0.0 0 0 167.32 221.99
  L 170.13 210.57
  A 0.68 0.68 0.0 0 1 170.79 210.06
  L 172.64 210.06
  A 0.43 0.42 8.9 0 1 173.05 210.61
  L 168.54 224.12
  A 1.58 1.57 -44.3 0 1 165.54 224.09
  L 162.20 213.22
  A 0.14 0.09 84.1 0 0 162.14 213.14
  Q 162.11 213.13 162.09 213.13
  Q 162.06 213.13 162.03 213.14
  A 0.14 0.09 -83.5 0 0 161.97 213.22
  L 158.53 224.06
  A 1.58 1.57 44.9 0 1 155.53 224.06
  L 151.15 210.50
  A 0.43 0.42 -8.3 0 1 151.56 209.96
  L 153.41 209.98
  A 0.68 0.68 0.0 0 1 154.07 210.49
  L 156.77 221.94
  A 0.22 0.22 0.0 0 0 157.19 221.95
  L 160.67 210.76
  A 0.80 0.79 79.4 0 1 160.94 210.36
  Q 161.40 209.99 162.10 209.99
  Z"
/>
<path fill="#1d1d1b" d="
  M 183.71 223.08
  Q 181.73 224.82 180.23 224.90
  C 177.04 225.08 174.27 222.81 175.23 219.45
  C 176.22 216.02 179.47 215.50 183.05 215.06
  A 1.03 1.03 0.0 0 0 183.74 213.42
  L 183.40 213.01
  A 3.25 3.23 -26.1 0 0 180.21 211.93
  L 177.16 212.61
  A 0.79 0.78 -12.5 0 1 176.22 212.02
  L 176.15 211.72
  A 0.42 0.41 71.1 0 1 176.37 211.26
  C 180.97 209.10 186.99 209.58 186.67 216.24
  Q 186.54 218.96 186.83 224.45
  A 0.53 0.52 88.9 0 1 186.31 225.00
  L 185.21 225.00
  A 0.67 0.67 0.0 0 1 184.56 224.48
  L 184.29 223.27
  A 0.35 0.35 0.0 0 0 183.71 223.08
  Z
  M 183.38 216.99
  C 180.49 216.89 176.71 217.92 177.90 221.50
  C 178.69 223.91 182.16 223.09 183.45 221.49
  C 184.24 220.50 183.97 218.78 184.06 217.75
  A 0.70 0.69 3.4 0 0 183.38 216.99
  Z"
/>
<path fill="#1d1d1b" d="
  M 257.79 217.50
  A 7.42 7.42 0.0 0 1 250.37 224.92
  A 7.42 7.42 0.0 0 1 242.95 217.50
  A 7.42 7.42 0.0 0 1 250.37 210.08
  A 7.42 7.42 0.0 0 1 257.79 217.50
  Z
  M 250.4279 211.9304
  A 5.56 4.70 -89.3 0 0 245.6604 217.4326
  A 5.56 4.70 -89.3 0 0 250.2921 223.0496
  A 5.56 4.70 -89.3 0 0 255.0596 217.5474
  A 5.56 4.70 -89.3 0 0 250.4279 211.9304
  Z"
/>
<path fill="#1d1d1b" d="
  M 276.99 217.56
  C 277.02 222.73 281.16 223.57 285.37 222.55
  A 0.58 0.58 0.0 0 1 286.09 223.15
  L 286.05 223.77
  A 0.76 0.76 0.0 0 1 285.48 224.47
  C 280.02 225.88 274.38 223.85 274.34 217.58
  C 274.30 211.30 279.92 209.21 285.40 210.56
  A 0.76 0.76 0.0 0 1 285.97 211.25
  L 286.02 211.87
  A 0.58 0.58 0.0 0 1 285.31 212.47
  C 281.09 211.51 276.96 212.39 276.99 217.56
  Z"
/>
<rect fill="#1d1d1b" x="-3.90" y="-0.97" transform="translate(219.13,216.99) rotate(0.4)" width="7.80" height="1.94" rx="0.74"/>
<circle fill="#1d1d1b" cx="270.14" cy="223.09" r="1.83"/>
</svg>
